<mxfile host="app.diagrams.net" agent="Mozilla/5.0 (X11; Linux x86_64; rv:134.0) Gecko/20100101 Firefox/134.0" version="26.0.10">
  <diagram name="Page-1" id="phx-YKFMBEC6P9j83-ub">
    <mxGraphModel dx="880" dy="434" grid="1" gridSize="10" guides="1" tooltips="1" connect="1" arrows="1" fold="1" page="1" pageScale="1" pageWidth="850" pageHeight="1100" math="0" shadow="0">
      <root>
        <mxCell id="0" />
        <mxCell id="1" parent="0" />
        <mxCell id="uAJI2Bd36F2nDndBRg5e-3" style="edgeStyle=orthogonalEdgeStyle;rounded=0;orthogonalLoop=1;jettySize=auto;html=1;entryX=0.5;entryY=0;entryDx=0;entryDy=0;" edge="1" parent="1" source="uAJI2Bd36F2nDndBRg5e-1" target="uAJI2Bd36F2nDndBRg5e-2">
          <mxGeometry relative="1" as="geometry">
            <Array as="points">
              <mxPoint x="425" y="140" />
              <mxPoint x="360" y="140" />
            </Array>
          </mxGeometry>
        </mxCell>
        <mxCell id="uAJI2Bd36F2nDndBRg5e-5" style="edgeStyle=orthogonalEdgeStyle;rounded=0;orthogonalLoop=1;jettySize=auto;html=1;" edge="1" parent="1" source="uAJI2Bd36F2nDndBRg5e-1" target="uAJI2Bd36F2nDndBRg5e-4">
          <mxGeometry relative="1" as="geometry" />
        </mxCell>
        <mxCell id="uAJI2Bd36F2nDndBRg5e-1" value="&lt;div&gt;Load Data (Mass+Age)&lt;/div&gt;" style="rounded=1;whiteSpace=wrap;html=1;" vertex="1" parent="1">
          <mxGeometry x="365" y="50" width="120" height="60" as="geometry" />
        </mxCell>
        <mxCell id="uAJI2Bd36F2nDndBRg5e-15" style="edgeStyle=orthogonalEdgeStyle;rounded=0;orthogonalLoop=1;jettySize=auto;html=1;entryX=0;entryY=0.5;entryDx=0;entryDy=0;exitX=0.5;exitY=1;exitDx=0;exitDy=0;" edge="1" parent="1" source="uAJI2Bd36F2nDndBRg5e-2" target="uAJI2Bd36F2nDndBRg5e-13">
          <mxGeometry relative="1" as="geometry">
            <mxPoint x="360" y="400" as="targetPoint" />
          </mxGeometry>
        </mxCell>
        <mxCell id="uAJI2Bd36F2nDndBRg5e-2" value="Load Masses in array" style="rounded=1;whiteSpace=wrap;html=1;" vertex="1" parent="1">
          <mxGeometry x="300" y="170" width="120" height="60" as="geometry" />
        </mxCell>
        <mxCell id="uAJI2Bd36F2nDndBRg5e-9" value="" style="edgeStyle=orthogonalEdgeStyle;rounded=0;orthogonalLoop=1;jettySize=auto;html=1;" edge="1" parent="1" source="uAJI2Bd36F2nDndBRg5e-4" target="uAJI2Bd36F2nDndBRg5e-7">
          <mxGeometry relative="1" as="geometry" />
        </mxCell>
        <mxCell id="uAJI2Bd36F2nDndBRg5e-4" value="&lt;div&gt;Load Ages in array&lt;/div&gt;" style="rounded=1;whiteSpace=wrap;html=1;" vertex="1" parent="1">
          <mxGeometry x="430" y="170" width="120" height="60" as="geometry" />
        </mxCell>
        <mxCell id="uAJI2Bd36F2nDndBRg5e-6" style="edgeStyle=orthogonalEdgeStyle;rounded=0;orthogonalLoop=1;jettySize=auto;html=1;exitX=0.5;exitY=1;exitDx=0;exitDy=0;" edge="1" parent="1" source="uAJI2Bd36F2nDndBRg5e-4" target="uAJI2Bd36F2nDndBRg5e-4">
          <mxGeometry relative="1" as="geometry" />
        </mxCell>
        <mxCell id="uAJI2Bd36F2nDndBRg5e-11" value="" style="edgeStyle=orthogonalEdgeStyle;rounded=0;orthogonalLoop=1;jettySize=auto;html=1;" edge="1" parent="1" source="uAJI2Bd36F2nDndBRg5e-7" target="uAJI2Bd36F2nDndBRg5e-10">
          <mxGeometry relative="1" as="geometry" />
        </mxCell>
        <mxCell id="uAJI2Bd36F2nDndBRg5e-12" value="&amp;gt; 5 billion" style="edgeLabel;html=1;align=center;verticalAlign=middle;resizable=0;points=[];" vertex="1" connectable="0" parent="uAJI2Bd36F2nDndBRg5e-11">
          <mxGeometry x="-0.225" y="-3" relative="1" as="geometry">
            <mxPoint y="-13" as="offset" />
          </mxGeometry>
        </mxCell>
        <mxCell id="uAJI2Bd36F2nDndBRg5e-14" value="" style="edgeStyle=orthogonalEdgeStyle;rounded=0;orthogonalLoop=1;jettySize=auto;html=1;" edge="1" parent="1" source="uAJI2Bd36F2nDndBRg5e-7" target="uAJI2Bd36F2nDndBRg5e-13">
          <mxGeometry relative="1" as="geometry" />
        </mxCell>
        <mxCell id="uAJI2Bd36F2nDndBRg5e-16" value="&amp;lt;= 5 billion" style="edgeLabel;html=1;align=center;verticalAlign=middle;resizable=0;points=[];" vertex="1" connectable="0" parent="uAJI2Bd36F2nDndBRg5e-14">
          <mxGeometry x="-0.35" y="-3" relative="1" as="geometry">
            <mxPoint as="offset" />
          </mxGeometry>
        </mxCell>
        <mxCell id="uAJI2Bd36F2nDndBRg5e-7" value="&lt;div&gt;Iterate through array, if:&lt;br&gt;&lt;/div&gt;" style="rounded=1;whiteSpace=wrap;html=1;" vertex="1" parent="1">
          <mxGeometry x="430" y="270" width="120" height="60" as="geometry" />
        </mxCell>
        <mxCell id="uAJI2Bd36F2nDndBRg5e-10" value="Do nothing" style="whiteSpace=wrap;html=1;rounded=1;" vertex="1" parent="1">
          <mxGeometry x="630" y="270" width="120" height="60" as="geometry" />
        </mxCell>
        <mxCell id="uAJI2Bd36F2nDndBRg5e-19" value="" style="edgeStyle=orthogonalEdgeStyle;rounded=0;orthogonalLoop=1;jettySize=auto;html=1;" edge="1" parent="1" source="uAJI2Bd36F2nDndBRg5e-13" target="uAJI2Bd36F2nDndBRg5e-18">
          <mxGeometry relative="1" as="geometry" />
        </mxCell>
        <mxCell id="uAJI2Bd36F2nDndBRg5e-13" value="Add mass at index i to array &quot;acceptable_masses&quot;" style="whiteSpace=wrap;html=1;rounded=1;" vertex="1" parent="1">
          <mxGeometry x="430" y="370" width="120" height="60" as="geometry" />
        </mxCell>
        <mxCell id="uAJI2Bd36F2nDndBRg5e-21" value="" style="edgeStyle=orthogonalEdgeStyle;rounded=0;orthogonalLoop=1;jettySize=auto;html=1;" edge="1" parent="1" source="uAJI2Bd36F2nDndBRg5e-18" target="uAJI2Bd36F2nDndBRg5e-20">
          <mxGeometry relative="1" as="geometry" />
        </mxCell>
        <mxCell id="uAJI2Bd36F2nDndBRg5e-22" value="&amp;lt; 1.0" style="edgeLabel;html=1;align=center;verticalAlign=middle;resizable=0;points=[];" vertex="1" connectable="0" parent="uAJI2Bd36F2nDndBRg5e-21">
          <mxGeometry x="-0.4" y="-2" relative="1" as="geometry">
            <mxPoint as="offset" />
          </mxGeometry>
        </mxCell>
        <mxCell id="uAJI2Bd36F2nDndBRg5e-24" value="" style="edgeStyle=orthogonalEdgeStyle;rounded=0;orthogonalLoop=1;jettySize=auto;html=1;" edge="1" parent="1" source="uAJI2Bd36F2nDndBRg5e-18" target="uAJI2Bd36F2nDndBRg5e-23">
          <mxGeometry relative="1" as="geometry" />
        </mxCell>
        <mxCell id="uAJI2Bd36F2nDndBRg5e-25" value="&amp;gt;= 1.0" style="edgeLabel;html=1;align=center;verticalAlign=middle;resizable=0;points=[];" vertex="1" connectable="0" parent="uAJI2Bd36F2nDndBRg5e-24">
          <mxGeometry x="-0.175" y="-2" relative="1" as="geometry">
            <mxPoint as="offset" />
          </mxGeometry>
        </mxCell>
        <mxCell id="uAJI2Bd36F2nDndBRg5e-18" value="Iterate through array, if:" style="whiteSpace=wrap;html=1;rounded=1;" vertex="1" parent="1">
          <mxGeometry x="430" y="470" width="120" height="60" as="geometry" />
        </mxCell>
        <mxCell id="uAJI2Bd36F2nDndBRg5e-20" value="&lt;div&gt;Kill program&lt;/div&gt;" style="whiteSpace=wrap;html=1;rounded=1;" vertex="1" parent="1">
          <mxGeometry x="430" y="570" width="120" height="60" as="geometry" />
        </mxCell>
        <mxCell id="uAJI2Bd36F2nDndBRg5e-23" value="Do nothing" style="whiteSpace=wrap;html=1;rounded=1;" vertex="1" parent="1">
          <mxGeometry x="630" y="470" width="120" height="60" as="geometry" />
        </mxCell>
      </root>
    </mxGraphModel>
  </diagram>
</mxfile>
